<svg height="496pt" viewBox="-31 0 496 496" width="496pt" xmlns="http://www.w3.org/2000/svg"><path d="m393.761719 0h-208c-22.058594 0-40 17.945312-40 40v88.078125h16v-64.078125h256v352h-256v-12.449219c9.519531-5.550781 16-15.757812 16-27.550781 0-5.855469-1.699219-11.273438-4.449219-16h4.449219c13.230469 0 24-10.769531 24-24 0-10-6.152344-18.566406-14.867188-22.167969l24.3125-145.832031h46.554688c13.230469 0 24-10.769531 24-24s-10.769531-24-24-24h-54.777344l-18.664063 112h-46.566406v16h43.894532l-10.664063 64h-132.105469c-3.808594 0-7.101562-2.703125-7.839844-6.433594l-11.519531-57.566406h22.273438v-16h-41.792969l15.34375 76.703125c2.230469 11.175781 12.128906 19.296875 23.535156 19.296875h138.882813c4.414062 0 8 3.59375 8 8s-3.585938 8-8 8h-144c-17.648438 0-32 14.351562-32 32s14.351562 32 32 32c17.644531 0 32-14.351562 32-32 0-5.855469-1.699219-11.273438-4.449219-16h56.902344c-2.757813 4.726562-4.453125 10.144531-4.453125 16 0 17.648438 14.351562 32 32 32v48c0 22.054688 17.941406 40 40 40h208c22.054687 0 40-17.945312 40-40v-416c0-22.054688-17.945313-40-40-40zm-177.226563 136h41.226563c4.414062 0 8 3.59375 8 8s-3.585938 8-8 8h-43.890625zm-166.773437 240c0 8.824219-7.175781 16-16 16s-16-7.175781-16-16 7.175781-16 16-16 16 7.175781 16 16zm80 0c0-8.824219 7.175781-16 16-16s16 7.175781 16 16-7.175781 16-16 16-16-7.175781-16-16zm32-328v-8c0-13.230469 10.765625-24 24-24h208c13.230469 0 24 10.769531 24 24v8zm232 432h-208c-13.234375 0-24-10.769531-24-24v-24h256v24c0 13.230469-10.769531 24-24 24zm0 0"/><path d="m89.761719 264c-48.523438 0-88-39.480469-88-88s39.476562-88 88-88c48.519531 0 88 39.480469 88 88s-39.480469 88-88 88zm0 0" fill="#f0bc5e"/><path d="m89.761719 200c-4.417969 0-8-3.59375-8-8h-16c0 10.414062 6.710937 19.214844 16 22.527344v17.472656h16v-17.472656c9.285156-3.3125 16-12.113282 16-22.527344 0-13.230469-10.769531-24-24-24-4.417969 0-8-3.59375-8-8s3.582031-8 8-8c4.414062 0 8 3.59375 8 8h16c0-10.414062-6.714844-19.214844-16-22.527344v-17.472656h-16v17.472656c-9.289063 3.3125-16 12.113282-16 22.527344 0 13.230469 10.765625 24 24 24 4.414062 0 8 3.59375 8 8s-3.585938 8-8 8zm0 0"/><path d="m265.761719 448h48v16h-48zm0 0"/><path d="m193.761719 384v16h208v-320h-224v32.167969h16v-16.167969h192v288zm0 0"/></svg>