<svg height="512pt" viewBox="0 -29 512.00002 512" width="512pt" xmlns="http://www.w3.org/2000/svg"><path d="m503.359375 421.613281-3.015625-29.140625-28.699219-277.164062c-1.253906-12.125-11.480469-21.34375-23.675781-21.34375h-385.941406c-12.195313 0-22.410156 9.21875-23.664063 21.34375l-28.699219 277.164062-3.019531 29.140625c-1.636719 15.808594 10.761719 29.558594 26.65625 29.558594h443.40625c15.890625 0 28.289063-13.75 26.652344-29.558594zm0 0" fill="#fff"/><path d="m503.359375 421.613281-3.015625-29.140625-28.699219-277.167968c-1.253906-12.121094-11.480469-21.339844-23.675781-21.339844h-27.988281c.117187 4.746094.179687 9.507812.179687 14.285156 0 129.316406-44.03125 248.34375-117.914062 342.921875h174.460937c15.890625 0 28.289063-13.75 26.652344-29.558594zm0 0" fill="#76ffd9"/><path d="m138.472656 355.644531-14.082031 55.5 55.503906-14.082031-8.128906-34.039062zm0 0" fill="#ffa816"/><path d="m500.34375 392.472656 3.015625 29.140625c1.636719 15.808594-10.761719 29.558594-26.652344 29.558594h-29.300781c0-30.539063 23.195312-55.640625 52.9375-58.699219zm0 0" fill="#5de0bf"/><path d="m62.589844 451.171875h-29.289063c-15.890625 0-28.292969-13.75-26.65625-29.554687l3.019531-29.144532c29.730469 3.058594 52.925782 28.160156 52.925782 58.699219zm0 0" fill="#5de0bf"/><path d="m377.027344 158.507812c5.71875 5.71875 8.578125 13.214844 8.578125 20.699219 0 7.496094-2.859375 14.992188-8.578125 20.710938l-9.113282 9.113281-26.882812-14.0625-14.523438-27.347656 9.113282-9.113282c11.429687-11.433593 29.972656-11.433593 41.40625 0zm0 0" fill="#ffa816"/><path d="m367.914062 209.03125-188.019531 188.03125-41.421875-41.417969 188.035156-188.023437zm0 0" fill="#ffc843"/><path d="m511.960938 446.695312-34.375-331.960937c-1.640626-15.863281-14.90625-27.824219-30.855469-27.824219h-96.324219v-48.042968c0-21.429688-17.433594-38.867188-38.867188-38.867188h-111.078124c-21.433594 0-38.867188 17.4375-38.867188 38.867188v27.425781c0 4.140625 3.355469 7.5 7.5 7.5 4.140625 0 7.5-3.359375 7.5-7.5v-27.425781c0-13.160157 10.707031-23.867188 23.867188-23.867188h111.078124c13.160157 0 23.867188 10.707031 23.867188 23.867188v48.039062h-270.136719c-15.949219 0-29.214843 11.964844-30.855469 27.824219l-34.3749995 331.964843c-.2187505 2.113282.4687495 4.21875 1.8906255 5.796876 1.421874 1.578124 3.445312 2.476562 5.570312 2.476562h124.3125c4.144531 0 7.5-3.359375 7.5-7.5s-3.355469-7.5-7.5-7.5h-115.996094l33.519532-323.691406c.847656-8.191406 7.699218-14.371094 15.933593-14.371094h381.460938c8.238281 0 15.089843 6.179688 15.9375 14.371094l33.515625 323.691406h-334.890625c-4.140625 0-7.5 3.359375-7.5 7.5s3.359375 7.5 7.5 7.5h343.207031c2.125 0 4.148438-.898438 5.570312-2.476562 1.421876-1.578126 2.109376-3.683594 1.890626-5.796876zm0 0" fill="#434c54"/></svg>