<svg xmlns="http://www.w3.org/2000/svg" height="512pt" version="1.1" viewBox="0 -41 512 512" width="512pt">
<g id="surface1">
<path d="M 295.386719 317.898438 L 216.609375 317.898438 C 216.609375 385.878906 162.847656 414.597656 162.847656 414.597656 L 349.152344 414.597656 C 349.152344 414.597656 295.386719 385.878906 295.386719 317.898438 Z M 295.386719 317.898438 " style=" stroke:none;fill-rule:nonzero;fill:rgb(20.392157%,29.019608%,36.470588%);fill-opacity:1;" />
<path d="M 295.386719 317.898438 L 248.304688 317.898438 C 248.304688 385.878906 292.953125 414.597656 292.953125 414.597656 L 349.152344 414.597656 C 349.152344 414.597656 295.386719 385.878906 295.386719 317.898438 Z M 295.386719 317.898438 " style=" stroke:none;fill-rule:nonzero;fill:rgb(16.470588%,24.705882%,30.980392%);fill-opacity:1;" />
<path d="M 500.828125 332.832031 L 11.171875 332.832031 C 5 332.832031 0 327.832031 0 321.660156 L 0 11.171875 C 0 5.003906 5 0 11.171875 0 L 500.828125 0 C 506.996094 0 512 5 512 11.171875 L 512 321.660156 C 512 327.832031 507 332.832031 500.828125 332.832031 Z M 500.828125 332.832031 " style=" stroke:none;fill-rule:nonzero;fill:rgb(52.941176%,85.882353%,99.215686%);fill-opacity:1;" />
<path d="M 365.167969 429.046875 L 146.832031 429.046875 C 139.054688 429.046875 132.746094 422.738281 132.746094 414.960938 L 132.746094 414.230469 C 132.746094 406.453125 139.054688 400.144531 146.832031 400.144531 L 365.167969 400.144531 C 372.945312 400.144531 379.253906 406.453125 379.253906 414.230469 L 379.253906 414.960938 C 379.253906 422.738281 372.945312 429.046875 365.167969 429.046875 Z M 365.167969 429.046875 " style=" stroke:none;fill-rule:nonzero;fill:rgb(23.529412%,33.72549%,40%);fill-opacity:1;" />
<path d="M 365.167969 400.144531 L 325.84375 400.144531 L 325.84375 429.046875 L 365.167969 429.046875 C 372.945312 429.046875 379.253906 422.738281 379.253906 414.960938 L 379.253906 414.230469 C 379.253906 406.449219 372.945312 400.144531 365.167969 400.144531 Z M 365.167969 400.144531 " style=" stroke:none;fill-rule:nonzero;fill:rgb(9.803922%,26.666667%,31.764706%);fill-opacity:1;" />
<path d="M 0 321.660156 C 0 327.832031 5 332.832031 11.171875 332.832031 L 500.828125 332.832031 C 506.996094 332.832031 512 327.832031 512 321.660156 L 512 291.777344 L 0 291.777344 Z M 0 321.660156 " style=" stroke:none;fill-rule:nonzero;fill:rgb(23.529412%,33.72549%,40%);fill-opacity:1;" />
<path d="M 500.828125 332.832031 L 11.171875 332.832031 C 5 332.832031 0 327.832031 0 321.660156 L 0 11.171875 C 0 5.003906 5 0 11.171875 0 L 500.828125 0 C 506.996094 0 512 5 512 11.171875 L 512 321.660156 C 512 327.832031 507 332.832031 500.828125 332.832031 Z M 500.828125 332.832031 " style=" stroke:none;fill-rule:nonzero;fill:rgb(23.529412%,33.72549%,40%);fill-opacity:1;" />
<path d="M 500.828125 0 L 458.4375 0 L 458.4375 332.832031 L 500.828125 332.832031 C 506.996094 332.832031 512 327.832031 512 321.660156 L 512 11.171875 C 512 5 507 0 500.828125 0 Z M 500.828125 0 " style=" stroke:none;fill-rule:nonzero;fill:rgb(9.803922%,26.666667%,31.764706%);fill-opacity:1;" />
<path d="M 0 321.660156 C 0 327.832031 5 332.832031 11.171875 332.832031 L 500.828125 332.832031 C 506.996094 332.832031 512 327.832031 512 321.660156 L 512 291.777344 L 0 291.777344 Z M 0 321.660156 " style=" stroke:none;fill-rule:nonzero;fill:rgb(80.392157%,83.921569%,87.45098%);fill-opacity:1;" />
<path d="M 458.4375 332.832031 L 500.828125 332.832031 C 506.996094 332.832031 512 327.832031 512 321.660156 L 512 291.777344 L 458.4375 291.777344 Z M 458.4375 332.832031 " style=" stroke:none;fill-rule:nonzero;fill:rgb(68.235294%,73.72549%,76.862745%);fill-opacity:1;" />
<path d="M 26.78125 259.308594 L 26.78125 30.40625 C 26.78125 28.40625 28.40625 26.78125 30.40625 26.78125 L 481.59375 26.78125 C 483.597656 26.78125 485.21875 28.40625 485.21875 30.40625 L 485.21875 259.308594 C 485.21875 261.3125 483.597656 262.9375 481.59375 262.9375 L 30.40625 262.9375 C 28.40625 262.933594 26.78125 261.3125 26.78125 259.308594 Z M 26.78125 259.308594 " style=" stroke:none;fill-rule:nonzero;fill:rgb(52.941176%,85.882353%,99.215686%);fill-opacity:1;" />
<path d="M 481.59375 26.78125 L 431.734375 26.78125 L 431.734375 262.9375 L 481.59375 262.9375 C 483.59375 262.9375 485.21875 261.3125 485.21875 259.308594 L 485.21875 30.40625 C 485.21875 28.40625 483.59375 26.78125 481.59375 26.78125 Z M 481.59375 26.78125 " style=" stroke:none;fill-rule:nonzero;fill:rgb(34.901961%,76.078431%,91.372549%);fill-opacity:1;" />
<path d="M 130.867188 189.722656 L 102.261719 189.722656 C 98.664062 189.722656 95.75 192.636719 95.75 196.230469 L 95.75 262.9375 L 137.378906 262.9375 L 137.378906 196.230469 C 137.378906 192.636719 134.464844 189.722656 130.867188 189.722656 Z M 130.867188 189.722656 " style=" stroke:none;fill-rule:nonzero;fill:rgb(98.823529%,91.764706%,40.784314%);fill-opacity:1;" />
<path d="M 217.449219 135.375 L 188.839844 135.375 C 185.246094 135.375 182.328125 138.289062 182.328125 141.886719 L 182.328125 262.933594 L 223.957031 262.933594 L 223.957031 141.886719 C 223.957031 138.289062 221.042969 135.375 217.449219 135.375 Z M 217.449219 135.375 " style=" stroke:none;fill-rule:nonzero;fill:rgb(98.823529%,91.764706%,40.784314%);fill-opacity:1;" />
<path d="M 304.027344 87.664062 L 275.421875 87.664062 C 271.824219 87.664062 268.910156 90.582031 268.910156 94.175781 L 268.910156 259.773438 L 310.539062 259.773438 L 310.539062 94.175781 C 310.535156 90.582031 307.621094 87.664062 304.027344 87.664062 Z M 304.027344 87.664062 " style=" stroke:none;fill-rule:nonzero;fill:rgb(98.823529%,91.764706%,40.784314%);fill-opacity:1;" />
<path d="M 390.605469 47.53125 L 362 47.53125 C 358.402344 47.53125 355.488281 50.445312 355.488281 54.042969 L 355.488281 262.175781 L 397.117188 262.175781 L 397.117188 54.042969 C 397.117188 50.445312 394.203125 47.53125 390.605469 47.53125 Z M 390.605469 47.53125 " style=" stroke:none;fill-rule:nonzero;fill:rgb(98.823529%,91.764706%,40.784314%);fill-opacity:1;" />
<path d="M 436.277344 338.339844 C 434.300781 338.339844 432.324219 337.585938 430.816406 336.078125 L 381.421875 286.683594 C 378.402344 283.664062 378.402344 278.773438 381.421875 275.757812 C 384.4375 272.738281 389.328125 272.738281 392.347656 275.757812 L 441.742188 325.148438 C 444.761719 328.167969 444.761719 333.058594 441.742188 336.078125 C 440.234375 337.585938 438.257812 338.339844 436.277344 338.339844 Z M 436.277344 338.339844 " style=" stroke:none;fill-rule:nonzero;fill:rgb(20.392157%,29.019608%,36.470588%);fill-opacity:1;" />
<path d="M 412.027344 162.117188 C 372.195312 122.28125 307.609375 122.28125 267.773438 162.117188 C 227.941406 201.949219 227.941406 266.535156 267.773438 306.367188 C 307.609375 346.203125 372.195312 346.203125 412.027344 306.367188 C 451.863281 266.535156 451.863281 201.949219 412.027344 162.117188 Z M 412.027344 162.117188 " style=" stroke:none;fill-rule:nonzero;fill:rgb(93.333333%,33.72549%,27.45098%);fill-opacity:1;" />
<path d="M 412.03125 162.113281 C 385.257812 135.339844 347.308594 126.59375 313.203125 135.808594 C 329.839844 140.304688 345.566406 149.054688 358.628906 162.113281 C 398.464844 201.949219 398.464844 266.535156 358.628906 306.367188 C 345.566406 319.429688 329.839844 328.179688 313.203125 332.675781 C 347.308594 341.890625 385.257812 333.144531 412.03125 306.367188 C 451.867188 266.535156 451.867188 201.949219 412.03125 162.113281 Z M 412.03125 162.113281 " style=" stroke:none;fill-rule:nonzero;fill:rgb(84.705882%,24.313725%,22.745098%);fill-opacity:1;" />
<path d="M 393.148438 180.996094 C 363.742188 151.589844 316.0625 151.589844 286.65625 180.996094 C 257.246094 210.402344 257.246094 258.082031 286.65625 287.488281 C 316.0625 316.894531 363.742188 316.894531 393.148438 287.488281 C 422.554688 258.082031 422.554688 210.402344 393.148438 180.996094 Z M 393.148438 180.996094 " style=" stroke:none;fill-rule:nonzero;fill:rgb(94.901961%,94.901961%,94.901961%);fill-opacity:1;" />
<path d="M 393.152344 180.996094 C 371.535156 159.378906 340.050781 153.671875 313.203125 163.835938 C 322.878906 167.5 331.953125 173.203125 339.746094 180.996094 C 369.152344 210.402344 369.152344 258.082031 339.746094 287.488281 C 331.953125 295.277344 322.878906 300.984375 313.203125 304.648438 C 340.050781 314.8125 371.535156 309.105469 393.152344 287.488281 C 422.558594 258.082031 422.558594 210.402344 393.152344 180.996094 Z M 393.152344 180.996094 " style=" stroke:none;fill-rule:nonzero;fill:rgb(80.392157%,83.921569%,87.45098%);fill-opacity:1;" />
<path d="M 312.566406 244.898438 C 312.566406 234.9375 291.253906 237.992188 291.253906 222.257812 C 291.253906 212.363281 299.75 208.976562 307.386719 208.976562 C 311.304688 208.976562 320.003906 209.90625 320.003906 214.289062 C 320.003906 215.816406 318.941406 218.871094 316.550781 218.871094 C 314.492188 218.871094 312.964844 216.347656 307.386719 216.347656 C 302.605469 216.347656 299.882812 218.273438 299.882812 221.460938 C 299.882812 229.691406 321.199219 226.839844 321.199219 244.035156 C 321.199219 253.53125 314.558594 258.441406 305.394531 258.441406 C 296.695312 258.441406 290.058594 254.0625 290.058594 250.210938 C 290.058594 248.351562 291.78125 245.5625 293.84375 245.5625 C 296.5625 245.5625 298.355469 250.675781 305.128906 250.675781 C 309.113281 250.675781 312.566406 248.882812 312.566406 244.898438 Z M 312.566406 244.898438 " style=" stroke:none;fill-rule:nonzero;fill:rgb(23.529412%,33.72549%,40%);fill-opacity:1;" />
<path d="M 335.742188 230.160156 L 345.835938 230.160156 C 347.5625 230.160156 348.558594 231.820312 348.558594 233.613281 C 348.558594 235.140625 347.695312 236.933594 345.835938 236.933594 L 335.742188 236.933594 L 335.742188 250.277344 L 354.53125 250.277344 C 356.257812 250.277344 357.253906 252.070312 357.253906 254.128906 C 357.253906 255.921875 356.390625 257.847656 354.53125 257.847656 L 330.894531 257.847656 C 328.96875 257.847656 327.109375 256.917969 327.109375 255.125 L 327.109375 212.03125 C 327.109375 210.238281 328.96875 209.308594 330.894531 209.308594 L 354.53125 209.308594 C 356.390625 209.308594 357.253906 211.234375 357.253906 213.027344 C 357.253906 215.085938 356.257812 216.878906 354.53125 216.878906 L 335.742188 216.878906 Z M 335.742188 230.160156 " style=" stroke:none;fill-rule:nonzero;fill:rgb(23.529412%,33.72549%,40%);fill-opacity:1;" />
<path d="M 361.242188 243.039062 L 361.242188 224.515625 C 361.242188 213.425781 368.015625 209.308594 376.78125 209.308594 C 385.542969 209.308594 392.382812 213.425781 392.382812 224.515625 L 392.382812 243.039062 C 392.382812 254.128906 385.546875 258.246094 376.78125 258.246094 C 368.015625 258.246094 361.242188 254.128906 361.242188 243.039062 Z M 383.753906 224.515625 C 383.753906 219.269531 381.097656 216.878906 376.78125 216.878906 C 372.398438 216.878906 369.875 219.269531 369.875 224.515625 L 369.875 243.039062 C 369.875 248.285156 372.398438 250.675781 376.78125 250.675781 C 381.097656 250.675781 383.753906 248.285156 383.753906 243.039062 Z M 383.753906 224.515625 " style=" stroke:none;fill-rule:nonzero;fill:rgb(23.529412%,33.72549%,40%);fill-opacity:1;" />
<path d="M 425.558594 344.347656 L 486.03125 404.820312 C 488.535156 407.324219 492.597656 407.324219 495.101562 404.820312 L 509.691406 390.230469 C 512.195312 387.726562 512.195312 383.664062 509.691406 381.160156 L 449.21875 320.6875 C 446.714844 318.183594 442.652344 318.183594 440.148438 320.6875 L 425.558594 335.277344 C 423.054688 337.78125 423.054688 341.84375 425.558594 344.347656 Z M 425.558594 344.347656 " style=" stroke:none;fill-rule:nonzero;fill:rgb(80%,60%,41.568627%);fill-opacity:1;" />
</g>
</svg>